<?xml version="1.0" encoding="UTF-8"?>
<svg xmlns="http://www.w3.org/2000/svg" xmlns:xlink="http://www.w3.org/1999/xlink" width="150pt" height="75pt" viewBox="0 0 150 75" version="1.1">
<g id="surface1">
<path style=" stroke:none;fill-rule:evenodd;fill:rgb(19.607843%,21.568627%,29.019608%);fill-opacity:1;" d="M 19.242188 59.308594 L 27.53125 59.308594 L 28.027344 62.074219 L 22.105469 62.074219 L 22.105469 65.425781 L 27.238281 65.425781 L 27.238281 68.09375 L 22.105469 68.09375 L 22.105469 71.546875 L 28.222656 71.546875 L 27.632812 74.308594 L 19.144531 74.308594 L 19.144531 59.308594 Z M 38.488281 64.144531 C 38.488281 62.863281 37.699219 62.074219 36.316406 62.074219 L 34.738281 62.074219 L 34.738281 66.21875 L 36.316406 66.21875 C 37.597656 66.21875 38.488281 65.425781 38.488281 64.144531 Z M 41.449219 64.046875 C 41.449219 65.824219 40.558594 67.300781 39.078125 68.191406 L 43.324219 74.308594 L 39.867188 74.308594 L 36.21875 68.882812 L 34.738281 68.882812 L 34.738281 74.308594 L 31.875 74.308594 L 31.875 59.308594 L 36.414062 59.308594 C 39.867188 59.308594 41.449219 61.675781 41.449219 64.046875 Z M 70.757812 68.289062 L 69.175781 64.34375 L 67.597656 68.289062 Z M 68.585938 59.210938 L 69.867188 59.210938 L 76.183594 74.308594 L 73.222656 74.308594 L 71.941406 70.855469 L 66.808594 70.855469 L 65.527344 74.308594 L 62.566406 74.308594 Z M 78.847656 74.308594 L 78.847656 59.308594 L 81.710938 59.308594 L 81.710938 74.308594 Z M 95.425781 66.808594 C 95.425781 63.949219 93.652344 62.074219 90.886719 62.074219 L 89.210938 62.074219 L 89.210938 71.546875 L 90.789062 71.546875 C 93.652344 71.546875 95.425781 69.671875 95.425781 66.808594 Z M 90.886719 59.308594 C 95.230469 59.308594 98.386719 62.367188 98.386719 66.808594 C 98.386719 70.363281 96.019531 74.308594 90.886719 74.308594 L 86.25 74.308594 L 86.25 59.308594 Z M 111.21875 63.847656 L 111.21875 67.5 L 114.574219 67.5 L 114.574219 70.164062 L 111.21875 70.164062 L 111.21875 73.816406 L 108.453125 73.816406 L 108.453125 70.164062 L 105.097656 70.164062 L 105.097656 67.5 L 108.453125 67.5 L 108.453125 63.847656 Z M 14.308594 59.210938 L 14.308594 59.40625 L 15.394531 74.308594 L 12.730469 74.308594 L 12.039062 66.117188 L 8.09375 74.011719 L 7.105469 74.011719 L 3.355469 66.21875 L 2.664062 74.308594 L 0 74.308594 L 0 74.011719 L 0.988281 59.210938 L 2.761719 59.210938 L 7.699219 68.980469 L 12.632812 59.210938 Z M 59.40625 59.210938 L 59.40625 59.40625 L 60.492188 74.308594 L 57.828125 74.308594 L 57.136719 66.117188 L 53.191406 74.011719 L 52.203125 74.011719 L 48.355469 66.21875 L 47.664062 74.308594 L 45 74.308594 L 45 74.011719 L 45.988281 59.113281 L 47.761719 59.113281 L 52.699219 68.882812 L 57.632812 59.113281 L 59.40625 59.113281 Z M 143.488281 71.546875 L 149.605469 71.546875 L 149.113281 74.308594 L 140.625 74.308594 L 140.625 59.308594 L 148.914062 59.308594 L 149.40625 62.074219 L 143.488281 62.074219 L 143.488281 65.425781 L 148.617188 65.425781 L 148.617188 68.09375 L 143.488281 68.09375 Z M 135.691406 59.210938 L 135.691406 59.40625 L 136.777344 74.308594 L 134.113281 74.308594 L 133.421875 66.117188 L 129.472656 74.011719 L 128.488281 74.011719 L 124.738281 66.21875 L 124.046875 74.308594 L 121.382812 74.308594 L 121.382812 74.011719 L 122.367188 59.113281 L 124.144531 59.113281 L 129.078125 68.882812 L 134.011719 59.113281 L 135.691406 59.113281 Z M 89.308594 3.15625 L 89.308594 3.15625 M 49.933594 3.550781 L 49.933594 3.550781 M 110.328125 19.242188 C 109.933594 17.761719 109.539062 16.28125 109.144531 14.800781 C 108.75 13.324219 108.355469 11.742188 107.960938 10.261719 C 107.46875 8.683594 107.074219 7.203125 106.28125 5.527344 C 106.085938 5.132812 105.886719 4.738281 105.492188 4.242188 C 105.296875 4.046875 105.097656 3.75 104.800781 3.550781 C 104.507812 3.355469 104.113281 3.058594 103.617188 2.960938 C 103.125 2.863281 102.53125 2.863281 102.039062 3.058594 C 101.546875 3.257812 101.25 3.453125 101.050781 3.652344 C 100.953125 3.75 100.953125 3.75 100.855469 3.847656 L 100.757812 3.949219 C 100.757812 3.949219 100.65625 4.046875 100.65625 4.046875 C 100.460938 4.242188 100.363281 4.441406 100.261719 4.539062 C 100.066406 4.835938 99.96875 5.03125 99.867188 5.230469 C 99.472656 6.117188 99.277344 6.90625 99.078125 7.597656 C 98.882812 8.386719 98.683594 9.175781 98.488281 9.867188 C 98.09375 11.449219 97.699219 12.925781 97.402344 14.507812 C 96.710938 17.566406 96.019531 20.625 95.425781 23.683594 C 95.328125 24.277344 95.132812 24.867188 95.03125 25.460938 C 94.933594 24.96875 94.933594 24.574219 94.835938 24.078125 C 94.34375 21.019531 94.144531 17.863281 93.949219 14.800781 C 93.75 11.644531 93.550781 8.585938 93.058594 5.328125 C 92.960938 4.539062 92.761719 3.75 92.566406 2.863281 C 92.46875 2.664062 92.367188 2.367188 92.269531 2.171875 C 92.171875 1.972656 92.074219 1.675781 91.777344 1.382812 C 91.675781 1.183594 91.480469 1.085938 91.28125 0.886719 C 91.183594 0.789062 90.988281 0.691406 90.886719 0.691406 C 90.789062 0.691406 90.691406 0.59375 90.59375 0.59375 L 90.394531 0.59375 C 90 0.492188 89.507812 0.492188 89.113281 0.59375 C 88.324219 0.789062 87.828125 1.183594 87.433594 1.480469 C 87.039062 1.875 86.644531 2.171875 86.347656 2.566406 C 85.757812 3.257812 85.261719 4.046875 84.867188 4.738281 C 83.980469 6.21875 83.289062 7.699219 82.699219 9.175781 C 82.007812 10.65625 81.511719 12.136719 80.921875 13.617188 C 79.835938 16.578125 78.949219 19.636719 77.960938 22.5 C 77.960938 22.597656 77.863281 22.699219 77.863281 22.796875 L 76.875 19.34375 C 75.988281 16.28125 75.097656 13.222656 74.210938 10.164062 L 72.828125 5.625 C 72.335938 4.738281 72.039062 3.847656 71.644531 2.960938 C 71.449219 2.46875 71.152344 2.074219 70.757812 1.578125 C 70.363281 1.085938 69.867188 0.691406 69.277344 0.394531 C 68.683594 0.0976562 67.992188 -0.0976562 67.300781 -0.0976562 C 66.613281 -0.0976562 65.722656 0.0976562 65.03125 0.59375 C 64.34375 1.085938 63.949219 1.578125 63.652344 2.171875 C 63.355469 2.664062 63.15625 3.15625 63.058594 3.550781 C 62.566406 5.230469 62.171875 6.710938 61.777344 8.289062 C 61.085938 11.449219 60.492188 14.507812 59.902344 17.664062 C 59.308594 20.722656 59.011719 23.882812 58.519531 26.941406 C 58.324219 28.421875 58.027344 29.902344 57.632812 31.28125 C 57.53125 31.085938 57.53125 30.886719 57.433594 30.691406 C 56.742188 27.730469 56.347656 24.574219 56.050781 21.414062 C 55.757812 18.257812 55.65625 15.097656 55.363281 11.941406 C 55.261719 10.363281 55.164062 8.78125 54.96875 7.203125 C 54.867188 6.414062 54.769531 5.625 54.671875 4.835938 C 54.574219 4.046875 54.375 3.257812 54.078125 2.269531 C 53.980469 1.972656 53.882812 1.777344 53.683594 1.28125 L 53.585938 1.085938 C 53.585938 0.988281 53.488281 0.886719 53.386719 0.886719 C 53.191406 0.691406 53.09375 0.492188 52.5 0.199219 C 52.300781 0.0976562 52.300781 0.0976562 52.300781 0.0976562 L 52.105469 0 C 52.007812 0 51.90625 -0.0976562 51.808594 -0.0976562 C 51.613281 -0.0976562 51.316406 -0.199219 51.117188 -0.0976562 C 50.230469 0 49.738281 0.296875 49.34375 0.492188 C 48.949219 0.691406 48.75 0.988281 48.550781 1.183594 C 47.761719 2.074219 47.269531 2.761719 46.875 3.550781 C 45.988281 5.03125 45.296875 6.613281 44.703125 8.09375 C 44.40625 8.882812 44.113281 9.671875 43.816406 10.363281 C 43.519531 11.152344 43.324219 11.941406 43.125 12.730469 C 42.632812 14.210938 42.238281 15.789062 41.84375 17.367188 C 41.050781 20.425781 40.261719 23.585938 39.574219 26.742188 C 38.882812 29.902344 38.289062 32.960938 37.5 36.117188 C 37.5 36.21875 37.402344 36.414062 37.402344 36.511719 C 37.300781 37.796875 38.289062 38.980469 39.574219 39.078125 C 40.953125 39.175781 42.136719 38.191406 42.238281 36.90625 C 42.53125 33.75 43.027344 30.691406 43.71875 27.632812 C 44.40625 24.574219 45.199219 21.613281 46.085938 18.652344 L 47.46875 14.210938 C 47.664062 13.421875 47.960938 12.730469 48.15625 12.039062 C 48.453125 11.347656 48.652344 10.65625 48.949219 9.867188 C 49.441406 8.683594 49.933594 7.597656 50.425781 6.511719 C 50.527344 7.007812 50.625 7.5 50.722656 7.894531 L 51.613281 12.53125 L 53.289062 21.808594 L 54.078125 26.546875 C 54.375 28.125 54.671875 29.703125 55.066406 31.28125 C 55.164062 31.675781 55.261719 32.074219 55.363281 32.46875 C 55.460938 32.664062 55.460938 32.863281 55.558594 33.15625 C 55.65625 33.355469 55.757812 33.652344 56.050781 33.949219 C 56.152344 34.144531 56.347656 34.34375 56.84375 34.441406 C 57.039062 34.539062 57.335938 34.539062 57.53125 34.441406 C 57.730469 34.441406 57.828125 34.34375 58.027344 34.34375 C 58.519531 34.046875 58.71875 33.847656 58.914062 33.550781 C 59.210938 33.058594 59.40625 32.664062 59.605469 32.269531 C 60.296875 30.691406 60.886719 29.210938 61.382812 27.632812 C 63.453125 21.511719 64.34375 15.199219 65.527344 9.078125 C 65.824219 7.597656 66.117188 6.019531 66.511719 4.636719 C 66.90625 4.441406 67.007812 4.144531 67.105469 3.949219 C 67.203125 3.75 67.300781 3.652344 67.300781 3.652344 C 67.402344 3.652344 67.5 3.652344 67.597656 3.75 C 67.796875 3.847656 67.894531 3.847656 67.992188 4.046875 C 68.191406 4.242188 68.289062 4.34375 68.488281 4.636719 C 68.78125 5.132812 69.078125 5.824219 69.277344 6.613281 C 69.769531 8.09375 70.363281 9.574219 70.757812 11.050781 C 72.632812 16.875 74.011719 22.796875 75.394531 28.816406 C 75.097656 29.605469 74.800781 30.394531 74.507812 31.183594 C 73.421875 34.046875 72.335938 37.007812 71.050781 39.769531 C 69.769531 42.632812 68.488281 45.394531 66.90625 48.058594 C 66.808594 48.15625 66.808594 48.257812 66.710938 48.355469 C 66.21875 49.539062 66.808594 50.921875 68.09375 51.414062 C 69.375 51.90625 70.757812 51.316406 71.25 50.03125 C 72.433594 47.074219 73.71875 44.210938 75 41.347656 C 75.789062 39.671875 76.480469 37.992188 77.171875 36.21875 C 78.15625 39.96875 79.34375 43.71875 80.722656 47.46875 C 81.019531 48.257812 81.90625 48.75 82.699219 48.550781 C 83.683594 48.355469 84.277344 47.46875 84.078125 46.578125 C 83.882812 45.789062 83.683594 45 83.585938 44.308594 L 82.992188 42.039062 C 82.597656 40.558594 82.203125 38.980469 81.710938 37.5 C 81.019531 35.132812 80.328125 32.761719 79.636719 30.394531 C 80.527344 28.222656 81.316406 26.050781 82.007812 23.882812 C 82.5 22.402344 82.992188 20.824219 83.386719 19.34375 L 84.769531 14.902344 C 85.65625 11.941406 86.644531 8.980469 87.828125 6.316406 C 88.125 5.625 88.421875 5.03125 88.816406 4.441406 C 89.011719 4.144531 89.210938 3.949219 89.308594 3.75 C 89.308594 3.75 89.308594 3.652344 89.40625 3.652344 C 89.40625 3.652344 89.40625 3.652344 89.40625 3.75 C 89.703125 4.34375 89.902344 5.03125 90.097656 5.824219 C 90.492188 7.300781 90.691406 8.78125 90.886719 10.363281 C 91.085938 11.84375 91.28125 13.421875 91.382812 15 C 91.675781 18.058594 91.777344 21.21875 91.777344 24.375 C 91.777344 25.953125 91.777344 27.53125 91.777344 29.113281 C 91.777344 29.902344 91.875 30.691406 91.875 31.578125 C 91.875 31.972656 91.972656 32.46875 92.074219 32.960938 C 92.171875 33.257812 92.171875 33.453125 92.367188 33.847656 C 92.46875 33.949219 92.46875 34.046875 92.566406 34.242188 C 92.566406 34.34375 92.664062 34.441406 92.761719 34.539062 C 92.863281 34.636719 92.863281 34.636719 92.960938 34.738281 C 92.960938 34.738281 93.058594 34.835938 93.15625 34.933594 C 93.257812 35.03125 93.355469 35.03125 93.453125 35.132812 C 93.550781 35.230469 93.75 35.230469 93.847656 35.328125 C 94.046875 35.328125 94.144531 35.425781 94.34375 35.425781 C 94.539062 35.425781 94.636719 35.425781 94.738281 35.425781 C 95.328125 35.328125 95.625 35.132812 95.824219 34.933594 C 96.21875 34.636719 96.316406 34.441406 96.414062 34.242188 C 96.511719 34.046875 96.613281 33.949219 96.710938 33.847656 C 96.808594 33.550781 96.90625 33.355469 97.007812 33.15625 C 97.203125 32.761719 97.300781 32.269531 97.5 31.875 C 97.796875 31.085938 97.992188 30.296875 98.191406 29.507812 C 98.585938 27.925781 98.882812 26.449219 99.175781 24.867188 C 99.769531 21.808594 100.261719 18.75 100.757812 15.59375 C 101.050781 14.011719 101.25 12.53125 101.546875 11.050781 C 101.644531 10.261719 101.84375 9.574219 102.039062 8.78125 C 102.238281 8.09375 102.433594 7.300781 102.632812 6.710938 C 102.730469 6.808594 102.828125 7.007812 102.925781 7.203125 C 103.519531 8.386719 103.914062 9.867188 104.308594 11.347656 C 104.703125 12.828125 105 14.308594 105.296875 15.886719 C 105.59375 17.367188 105.988281 18.949219 106.28125 20.527344 L 108.453125 29.605469 L 110.527344 38.585938 C 110.722656 39.375 111.511719 39.96875 112.402344 39.96875 C 113.386719 39.867188 114.078125 39.078125 114.078125 38.191406 C 113.882812 31.382812 112.007812 25.164062 110.328125 19.242188 "/>
</g>
</svg>
